<?xml version="1.0" encoding="utf-8"?>
<!-- Generator: Adobe Illustrator 21.0.1, SVG Export Plug-In . SVG Version: 6.00 Build 0)  -->
<svg version="1.1" id="Lag_1" xmlns="http://www.w3.org/2000/svg" xmlns:xlink="http://www.w3.org/1999/xlink" x="0px" y="0px"
	 viewBox="0 0 60 60" style="enable-background:new 0 0 60 60;" xml:space="preserve">
<style type="text/css">
	.st0{fill:#E30613;}
</style>
<g>
	<g>
		<path class="st0" d="M6.8,34.9c14.1-5.8,31.9-0.9,46.3,1.7c3.1,0.6,4.5-4.2,1.3-4.8c-8.5-1.6-17-2.9-25.6-3.9
			C20.9,27.1,13,27,5.5,30.1C2.5,31.3,3.8,36.2,6.8,34.9L6.8,34.9z"/>
	</g>
</g>
<g>
	<g>
		<path class="st0" d="M28.8,11.9c-1.2,0.9-2,2.1-2,3.6c0,1.4,1.1,2.5,2.5,2.5c0.2,0,0.5,0,0.7,0c1.3,0,2.6-1.2,2.5-2.5
			C32.4,14.1,31.4,13,30,13c-0.2,0-0.5,0-0.7,0c0.8,0.8,1.7,1.7,2.5,2.5c0-0.3,0-0.2-0.1,0.2c0.1-0.3,0-0.2-0.1,0.2
			c0.1-0.2,0.1-0.2-0.2,0.2c0.2-0.2,0.1-0.1-0.2,0.1c0.5-0.4,1-0.8,1.1-1.5c0.2-0.6,0.1-1.4-0.3-1.9C31.5,11.7,29.9,11,28.8,11.9
			L28.8,11.9z"/>
	</g>
</g>
<g>
	<g>
		<path class="st0" d="M27.8,47.4C27.9,47.5,28.1,47.7,27.8,47.4c-0.1-0.1-0.3-0.9-0.2-0.5c0.1,0.4-0.1-0.6,0-0.3
			c0,0.3-0.2,0.1,0.1-0.3c0,0-0.1,0.2-0.1,0.2c0-0.4,0.2-0.5,0.1-0.3c-0.1,0.2,0.4-0.5,0.2-0.2c0.1-0.1,0.2-0.2,0.3-0.3
			c-0.2,0.1-0.1,0.1,0.1,0c0.1-0.1,0.3-0.1,0.4-0.1c0.3,0,0.3,0,0.1,0c0,0,0.7,0.1,0.3,0c0.4,0.2,0.5,0.2,0.4,0.1
			c-0.1-0.1-0.1,0,0.1,0.1c0.2,0.2,0.2,0.2,0.1,0c0.1,0.1,0.2,0.2,0.2,0.3c0,0-0.3-0.5,0,0c0.1,0.2,0.1,0.3,0.1,0.1
			c-0.1-0.2,0-0.1,0,0.4c0-0.3-0.1,0.3-0.1,0.3c0.1-0.4-0.3,0.5-0.1,0.2c0.7-1.1,0.3-2.8-0.9-3.4c-1.2-0.7-2.7-0.3-3.4,0.9
			c-1.7,2.7,1,6.6,4.2,5.7c2.7-0.8,3.9-4.6,1.6-6.6c-1-0.8-2.6-1-3.5,0C26.9,44.8,26.7,46.5,27.8,47.4L27.8,47.4z"/>
	</g>
</g>
<g>
	<g>
		<path class="st0" d="M31,11.5c-0.2-0.1-0.4-0.3-0.5-0.4c-1.1-0.9-2.5-1-3.5,0c-0.9,0.9-1.7,2-1.6,3.3c0,1.5,1,3,2.5,3.3
			c1.3,0.3,2.8-0.4,3.1-1.7c0.3-1.3-0.4-2.8-1.7-3.1c-0.4-0.1-0.2,0,0.7,0.4c0.2,0.2,0.3,0.4,0.4,0.7c-0.1-0.3,0-0.2,0,0.3
			c0,0.2,0,0.4-0.1,0.6c-0.1,0.2-0.1,0.2,0,0c0.1-0.2,0.1-0.2-0.1,0.1c0,0,0.4-0.4,0.4-0.4c-1.2,0-2.4,0-3.5,0
			c0.2,0.1,0.4,0.3,0.5,0.4c0.5,0.4,1.1,0.7,1.8,0.7c0.6,0,1.3-0.3,1.8-0.7C31.9,14.1,32.1,12.3,31,11.5L31,11.5z"/>
	</g>
</g>
</svg>
