<?xml version="1.0" encoding="utf-8"?>
<!-- Generator: Adobe Illustrator 21.0.1, SVG Export Plug-In . SVG Version: 6.00 Build 0)  -->
<svg version="1.1" id="Lag_1" xmlns="http://www.w3.org/2000/svg" xmlns:xlink="http://www.w3.org/1999/xlink" x="0px" y="0px"
	 viewBox="0 0 60 60" style="enable-background:new 0 0 60 60;" xml:space="preserve">
<style type="text/css">
	.st0{fill:#E52235;}
</style>
<g>
	<g>
		<path class="st0" d="M4.8,11c8.3,5.3,17.6,10.1,24.5,17.2c6.8,7,13.5,14.4,17.5,23.4c1.3,2.9,5.6,0.4,4.3-2.5
			C47,39.7,39.9,31.9,32.9,24.7c-7.3-7.5-16.8-12.5-25.5-18C4.6,4.9,2.1,9.2,4.8,11L4.8,11z"/>
	</g>
</g>
<g>
	<g>
		<path class="st0" d="M11.9,49.5c5.4-8.7,10.5-17.3,18.1-24.3c8-7.4,16.8-10.8,27.2-13.5c3.1-0.8,1.8-5.6-1.3-4.8
			C45.2,9.6,36,13.1,27.7,20.5C19.2,28.1,13.6,37.4,7.6,47C5.9,49.7,10.3,52.2,11.9,49.5L11.9,49.5z"/>
	</g>
</g>
</svg>
